<svg width="141" height="18" viewBox="0 0 141 18" fill="none" xmlns="http://www.w3.org/2000/svg">
<g clip-path="url(#clip0_6_3)">
<path d="M116.571 15.4286V6.09841L134.415 17.7147C135.133 18.1823 135.998 18.2451 136.742 17.9597C137.944 17.7445 138.857 16.6931 138.857 15.4286V2.57145C138.857 1.15129 137.706 2.55733e-05 136.286 2.55733e-05C134.866 2.55733e-05 133.714 1.15129 133.714 2.57145V11.1218L116.686 0.0366808C115.826 -0.523181 114.756 -0.502685 113.936 0.000801217C112.546 0.0346585 111.429 1.17262 111.429 2.57145V15.4286C111.429 16.8488 112.58 18 114 18C115.42 18 116.571 16.8488 116.571 15.4286Z" fill="#8DF4FF"/>
<path fill-rule="evenodd" clip-rule="evenodd" d="M87 0C85.5798 0 84.4286 1.15127 84.4286 2.57143V15.4286C84.4286 16.8487 85.5798 18 87 18H108.429C109.849 18 111 16.8487 111 15.4286V2.57143C111 1.15127 109.849 0 108.429 0H87ZM97.791 4.28575C97.791 4.28575 95.2698 7.63967 95.2698 10.0581C95.2698 12.4765 97.2157 12.8009 97.791 12.8009C98.3662 12.8009 100.312 12.4765 100.312 10.0581C100.312 7.63967 97.791 4.28575 97.791 4.28575Z" fill="#8DF4FF"/>
<path d="M61.7143 15.4286V7.67458L68.2518 16.0422C68.4277 16.2674 68.6336 16.4553 68.8595 16.6047C68.8675 16.611 68.8754 16.6173 68.8834 16.6236C70.0025 17.4979 71.6186 17.2995 72.4929 16.1804L78.8571 8.03451V15.4286C78.8571 16.8487 80.0084 18 81.4286 18C82.8487 18 84 16.8487 84 15.4286V2.57141C84 1.15125 82.8487 -1.74344e-05 81.4286 -1.74344e-05H79.4914L78.9429 -0.428589L70.4263 10.4721L61.9098 -0.428589L61.3612 -1.74344e-05H59.1428C57.7227 -1.74344e-05 56.5714 1.15125 56.5714 2.57141V15.4286C56.5714 16.8487 57.7227 18 59.1428 18C60.563 18 61.7143 16.8487 61.7143 15.4286Z" fill="#8DF4FF"/>
<path d="M29.1429 2.57143C29.1429 1.15127 30.2941 0 31.7143 0V0C33.1344 0 34.2857 1.15127 34.2857 2.57143V18H31.7143C30.2941 18 29.1429 16.8487 29.1429 15.4286V2.57143Z" fill="#8DF4FF"/>
<path d="M51 2.57143C51 1.15127 52.1513 0 53.5714 0V0C54.9916 0 56.1429 1.15127 56.1429 2.57143V15.4286C56.1429 16.8487 54.9916 18 53.5714 18H51V2.57143Z" fill="#8DF4FF"/>
<path d="M53 13L53 18L33 18L33 13L53 13Z" fill="#8DF4FF"/>
<path d="M1.71429 2.57143C1.71429 1.15127 2.86555 0 4.28572 0V0C5.70588 0 6.85714 1.15127 6.85714 2.57143V18H1.71429V2.57143Z" fill="#8DF4FF"/>
<path d="M26.5 13C27.8807 13 29 14.1193 29 15.5V15.5C29 16.8807 27.8807 18 26.5 18L5 18L5 13L26.5 13Z" fill="#8DF4FF"/>
</g>
<defs>
<clipPath id="clip0_6_3">
<rect width="140.571" height="18" fill="white"/>
</clipPath>
</defs>
</svg>
