<svg width="328" height="42" viewBox="0 0 328 42" fill="none" xmlns="http://www.w3.org/2000/svg">
<g clip-path="url(#clip0_1_2)">
<path d="M272 36V14.2296L313.635 41.3343C315.311 42.4254 317.33 42.5718 319.064 41.9059C321.87 41.4037 324 38.9506 324 36V6C324 2.68629 321.314 -1.19209e-07 318 -1.19209e-07C314.686 -1.19209e-07 312 2.68629 312 6V25.9508L272.268 0.0855287C270.262 -1.22082 267.764 -1.17299 265.851 0.00180972C262.606 0.08081 260 2.73605 260 6V36C260 39.3137 262.686 42 266 42C269.314 42 272 39.3137 272 36Z" fill="#8DF4FF"/>
<path fill-rule="evenodd" clip-rule="evenodd" d="M203 0C199.686 0 197 2.68629 197 6V36C197 39.3137 199.686 42 203 42H253C256.314 42 259 39.3137 259 36V6C259 2.68629 256.314 0 253 0H203ZM228.179 10C228.179 10 222.296 17.8258 222.296 23.4688C222.296 29.1119 226.837 29.8686 228.179 29.8686C229.521 29.8686 234.062 29.1119 234.062 23.4688C234.062 17.8258 228.179 10 228.179 10Z" fill="#8DF4FF"/>
<path d="M144 36V17.9074L159.254 37.4318C159.665 37.9572 160.145 38.3957 160.672 38.7442C160.691 38.759 160.709 38.7737 160.728 38.7883C163.339 40.8285 167.11 40.3655 169.15 37.7542L184 18.7472V36C184 39.3137 186.686 42 190 42C193.314 42 196 39.3137 196 36V6C196 2.68629 193.314 0 190 0H185.48L184.2 -1L164.328 24.4349L144.456 -1L143.176 0H138C134.686 0 132 2.68629 132 6V36C132 39.3137 134.686 42 138 42C141.314 42 144 39.3137 144 36Z" fill="#8DF4FF"/>
<path d="M68 6C68 2.68629 70.6863 0 74 0C77.3137 0 80 2.68629 80 6V42H74C70.6863 42 68 39.3137 68 36V6Z" fill="#8DF4FF"/>
<path d="M119 6C119 2.68629 121.686 0 125 0C128.314 0 131 2.68629 131 6V36C131 39.3137 128.314 42 125 42H119V6Z" fill="#8DF4FF"/>
<path d="M119 30L119 42L80 42L80 30L119 30Z" fill="#8DF4FF"/>
<path d="M4 6C4 2.68629 6.68629 0 10 0C13.3137 0 16 2.68629 16 6V42H4V6Z" fill="#8DF4FF"/>
<path d="M61 30C64.3137 30 67 32.6863 67 36C67 39.3137 64.3137 42 61 42L16 42L16 30L61 30Z" fill="#8DF4FF"/>
</g>
<defs>
<clipPath id="clip0_1_2">
<rect width="328" height="42" fill="white"/>
</clipPath>
</defs>
</svg>
